<svg xmlns="http://www.w3.org/2000/svg" viewBox="0 0 76.569 57.202">
  <defs>
    <style>
      .cls-1 {
        fill: #ffc400;
      }
    </style>
  </defs>
  <path id="Composite_Path" data-name="Composite Path" class="cls-1" d="M997.681,599.981a6.743,6.743,0,0,0-12.384.205l-23.214-8.769a8.722,8.722,0,0,0-7.535-10.646l.171-8.89a6.743,6.743,0,1,0-2-.038l-.171,8.923a8.75,8.75,0,0,0-6.96,12.293,8.585,8.585,0,0,0,.443.846L933.17,604.056a6.741,6.741,0,1,0,1.443,2.052c-.071-.157-.154-.307-.234-.457L947.246,595.5a8.743,8.743,0,0,0,14.176-2.193l23.391,8.834a6.748,6.748,0,1,0,12.868-2.159Zm-41.337-4.374a6.749,6.749,0,1,1,3.373-8.928A6.756,6.756,0,0,1,956.344,595.607Z" transform="translate(-921.712 -558.436)"/>
</svg>
