<svg xmlns="http://www.w3.org/2000/svg" viewBox="0 0 71 55">
  <defs>
    <style>
      .cls-1 {
        fill: #00c6bf;
      }
    </style>
  </defs>
  <path id="Icon" class="cls-1" d="M945,1000h32v-3H945Zm46-55H930a4.85,4.85,0,0,0-5,5v36c0,2.89,2.115,5.995,5,6h61c2.887-.005,4.986-3.11,5-6V950A4.856,4.856,0,0,0,991,945Zm2.03,41.232c0,.9-1.14,2.768-2.03,2.768H930c-.9,0-2.037-1.872-2.037-2.768v-36.14A2.484,2.484,0,0,1,930,948h61a2.483,2.483,0,0,1,2.03,2.092Z" transform="translate(-925 -945)"/>
</svg>
