<svg xmlns="http://www.w3.org/2000/svg" viewBox="0 0 63.186 58">
  <defs>
    <style>
      .cls-1 {
        fill: #00c6bf;
      }
    </style>
  </defs>
  <path id="Icon" class="cls-1" d="M1369,964h-14a18.543,18.543,0,0,0-3.42-9.256A10.037,10.037,0,0,0,1344,950h-15c-.36-1.959-1.937-4-4-4h-4a3.871,3.871,0,0,0-4,4v7h-6a1.034,1.034,0,0,0-1,1c0,1.16.23,2,1,2h6v12l-5.784.108a1.406,1.406,0,0,0-1.4,1.4h0a1.408,1.408,0,0,0,1.4,1.4L1317,975v6a3.87,3.87,0,0,0,4,4h4a4.631,4.631,0,0,0,4-3h15l-.367.039h.552V982c3.021-.223,5.614-2.154,7.4-4.908A21.714,21.714,0,0,0,1355,967h14c.762,0,1,1.241,1,2v24c0,.763-.238.994-1,1h-31a3.868,3.868,0,0,0-4,4v6h3l-.031-5.609a1.421,1.421,0,0,1,1.405-1.4h30.6A3.884,3.884,0,0,0,1373,993V969C1372.991,966.678,1371.321,964,1369,964Zm-42.248,16.518a1.418,1.418,0,0,1-1.4,1.4H1321.5a1.42,1.42,0,0,1-1.4-1.4V950.557c0-.76,1.146-1.553,1.906-1.557h3a1.91,1.91,0,0,1,1.752,1.557ZM1330,979V953h11v26h-11Zm19.228-3.439A7.261,7.261,0,0,1,1344,979V953a7.018,7.018,0,0,1,5.228,3.274,19.324,19.324,0,0,1,0,19.287Z" transform="translate(-1309.814 -946)"/>
</svg>
