<svg xmlns="http://www.w3.org/2000/svg" viewBox="0 0 59.079 59.077">
  <defs>
    <style>
      .cls-1 {
        fill: #00c6bf;
      }
    </style>
  </defs>
  <path id="Icon" class="cls-1" d="M577.671,951.92l4.97,4.973a1.538,1.538,0,0,1,0,2.173h0L550.99,990.714l2.086,2.087,31.652-31.649a4.494,4.494,0,0,0,0-6.346l-12.035-12.032a4.494,4.494,0,0,0-6.35,0L534.7,974.422l2.088,2.087,31.646-31.648a1.54,1.54,0,0,1,2.174,0l4.977,4.972L545.565,979.85l2.087,2.087Zm-44.818,30.61a3.314,3.314,0,0,0-2.292-1.1,2.384,2.384,0,0,0-1.917.985A3.632,3.632,0,0,0,528,984.3l-1.022,11.924h0a3.122,3.122,0,0,0-.02.387,3.863,3.863,0,0,0,3.914,3.925h.011c.116,0,.23-.005.349-.014L543.2,999.5a3.629,3.629,0,0,0,1.88-.646,2.383,2.383,0,0,0,.985-1.914,3.277,3.277,0,0,0-1.094-2.291Zm-1.843,15.053c-.029,0-.077,0-.125,0a.9.9,0,0,1-.975-.973s0-.047-.009-.122h.017l1-11.72,11.807,11.809Z" transform="translate(-526.96 -941.461)"/>
</svg>
